# xmcd
# 
# Track frame offsets:
#     150
#     11555
#     28589
#     44312
#     56075
#     68330
#     81177
#     93779
#     124510
#     141649
#     167449
#     187893
#     214684
#     230989
#     253184
#     267109
#     278243
#     290837
#     306720
# 
# Disc length: 4621
# 
# Revision: 1
# Processed by: cddbd v1.5.2PL0 Copyright (c) Steve Scherf et al.
# Submitted via: BonkEnc v1.0
# 
DISCID=19120b13
DTITLE=zeca  - zeca forro
DYEAR=2007
DGENRE=Country
TTITLE0=zeca 01
TTITLE1=zeca 02
TTITLE2=zeca 03
TTITLE3=zeca 04
TTITLE4=zeca 05
TTITLE5=zeca 06
TTITLE6=zeca 07
TTITLE7=zeca 08
TTITLE8=zeca 09
TTITLE9=zeca 10
TTITLE10=zeca 11
TTITLE11=zeca 12
TTITLE12=zeca 13
TTITLE13=zeca 14
TTITLE14=zeca 15
TTITLE15=zeca 16
TTITLE16=zeca 17
TTITLE17=zeca 18
TTITLE18=zeca 19
EXTD=disco criado por mim
EXTT0=
EXTT1=
EXTT2=
EXTT3=
EXTT4=
EXTT5=
EXTT6=
EXTT7=
EXTT8=
EXTT9=
EXTT10=
EXTT11=
EXTT12=
EXTT13=
EXTT14=
EXTT15=
EXTT16=
EXTT17=
EXTT18=
PLAYORDER=
